{
	"asset":{
		"generator":"Khronos glTF Blender I/O v3.5.30",
		"version":"2.0"
	},
	"scene":0,
	"scenes":[
		{
			"name":"Scene",
			"nodes":[
				0
			]
		}
	],
	"nodes":[
		{
			"mesh":0,
			"name":"Rubix_Cube_Cube.001",
			"rotation":[
				0.7071068286895752,
				0,
				0,
				0.7071068286895752
			]
		}
	],
	"materials":[
		{
			"doubleSided":true,
			"name":"Black",
			"pbrMetallicRoughness":{
				"baseColorFactor":[
					0.6399999856948853,
					0.6399999856948853,
					0.6399999856948853,
					1
				],
				"metallicFactor":0,
				"roughnessFactor":0.6900347471237183
			}
		},
		{
			"doubleSided":true,
			"name":"Red_Face",
			"pbrMetallicRoughness":{
				"baseColorFactor":[
					0.6399999856948853,
					0.6399999856948853,
					0.6399999856948853,
					1
				],
				"metallicFactor":0,
				"roughnessFactor":0.6900347471237183
			}
		},
		{
			"doubleSided":true,
			"name":"Yellow_Face",
			"pbrMetallicRoughness":{
				"baseColorFactor":[
					0.6399999856948853,
					0.6399999856948853,
					0.6399999856948853,
					1
				],
				"metallicFactor":0,
				"roughnessFactor":0.6900347471237183
			}
		},
		{
			"doubleSided":true,
			"name":"Blue_Face",
			"pbrMetallicRoughness":{
				"baseColorFactor":[
					0.6399999856948853,
					0.6399999856948853,
					0.6399999856948853,
					1
				],
				"metallicFactor":0,
				"roughnessFactor":0.6900347471237183
			}
		},
		{
			"doubleSided":true,
			"name":"White_Face",
			"pbrMetallicRoughness":{
				"baseColorFactor":[
					0.6399999856948853,
					0.6399999856948853,
					0.6399999856948853,
					1
				],
				"metallicFactor":0,
				"roughnessFactor":0.6900347471237183
			}
		},
		{
			"doubleSided":true,
			"name":"Orange_Face",
			"pbrMetallicRoughness":{
				"baseColorFactor":[
					0.6399999856948853,
					0.6399999856948853,
					0.6399999856948853,
					1
				],
				"metallicFactor":0,
				"roughnessFactor":0.6900347471237183
			}
		},
		{
			"doubleSided":true,
			"name":"Green_Face",
			"pbrMetallicRoughness":{
				"baseColorFactor":[
					0.6399999856948853,
					0.6399999856948853,
					0.6399999856948853,
					1
				],
				"metallicFactor":0,
				"roughnessFactor":0.6900347471237183
			}
		}
	],
	"meshes":[
		{
			"name":"Rubix_Cube_Cube.001",
			"primitives":[
				{
					"attributes":{
						"POSITION":0,
						"NORMAL":1
					},
					"indices":2,
					"material":0
				},
				{
					"attributes":{
						"POSITION":3,
						"NORMAL":4
					},
					"indices":5,
					"material":1
				},
				{
					"attributes":{
						"POSITION":6,
						"NORMAL":7
					},
					"indices":8,
					"material":2
				},
				{
					"attributes":{
						"POSITION":9,
						"NORMAL":10
					},
					"indices":5,
					"material":3
				},
				{
					"attributes":{
						"POSITION":11,
						"NORMAL":12
					},
					"indices":13,
					"material":4
				},
				{
					"attributes":{
						"POSITION":14,
						"NORMAL":15
					},
					"indices":16,
					"material":5
				},
				{
					"attributes":{
						"POSITION":17,
						"NORMAL":18
					},
					"indices":16,
					"material":6
				}
			]
		}
	],
	"accessors":[
		{
			"bufferView":0,
			"componentType":5126,
			"count":4752,
			"max":[
				5,
				1,
				1
			],
			"min":[
				-1,
				-5,
				-5
			],
			"type":"VEC3"
		},
		{
			"bufferView":1,
			"componentType":5126,
			"count":4752,
			"type":"VEC3"
		},
		{
			"bufferView":2,
			"componentType":5123,
			"count":27216,
			"type":"SCALAR"
		},
		{
			"bufferView":3,
			"componentType":5126,
			"count":108,
			"max":[
				5,
				0.8443509936332703,
				0.8443509936332703
			],
			"min":[
				1,
				-4.844350814819336,
				-4.844350814819336
			],
			"type":"VEC3"
		},
		{
			"bufferView":4,
			"componentType":5126,
			"count":108,
			"type":"VEC3"
		},
		{
			"bufferView":5,
			"componentType":5123,
			"count":162,
			"type":"SCALAR"
		},
		{
			"bufferView":6,
			"componentType":5126,
			"count":108,
			"max":[
				4.844350814819336,
				0.8443509936332703,
				-1
			],
			"min":[
				-0.8443509936332703,
				-4.844350814819336,
				-5
			],
			"type":"VEC3"
		},
		{
			"bufferView":7,
			"componentType":5126,
			"count":108,
			"type":"VEC3"
		},
		{
			"bufferView":8,
			"componentType":5123,
			"count":162,
			"type":"SCALAR"
		},
		{
			"bufferView":9,
			"componentType":5126,
			"count":108,
			"max":[
				4.844350814819336,
				1,
				0.8443509936332703
			],
			"min":[
				-0.8443509936332703,
				-3,
				-4.844350814819336
			],
			"type":"VEC3"
		},
		{
			"bufferView":10,
			"componentType":5126,
			"count":108,
			"type":"VEC3"
		},
		{
			"bufferView":11,
			"componentType":5126,
			"count":108,
			"max":[
				4.844350814819336,
				0.8443509936332703,
				1
			],
			"min":[
				-0.8443509936332703,
				-4.844350814819336,
				-3
			],
			"type":"VEC3"
		},
		{
			"bufferView":12,
			"componentType":5126,
			"count":108,
			"type":"VEC3"
		},
		{
			"bufferView":13,
			"componentType":5123,
			"count":162,
			"type":"SCALAR"
		},
		{
			"bufferView":14,
			"componentType":5126,
			"count":108,
			"max":[
				4.844350814819336,
				-1,
				0.8443509936332703
			],
			"min":[
				-0.8443509936332703,
				-5,
				-4.844350814819336
			],
			"type":"VEC3"
		},
		{
			"bufferView":15,
			"componentType":5126,
			"count":108,
			"type":"VEC3"
		},
		{
			"bufferView":16,
			"componentType":5123,
			"count":162,
			"type":"SCALAR"
		},
		{
			"bufferView":17,
			"componentType":5126,
			"count":108,
			"max":[
				3,
				0.8443509936332703,
				0.8443509936332703
			],
			"min":[
				-1,
				-4.844350814819336,
				-4.844350814819336
			],
			"type":"VEC3"
		},
		{
			"bufferView":18,
			"componentType":5126,
			"count":108,
			"type":"VEC3"
		}
	],
	"bufferViews":[
		{
			"buffer":0,
			"byteLength":57024,
			"byteOffset":0,
			"target":34962
		},
		{
			"buffer":0,
			"byteLength":57024,
			"byteOffset":57024,
			"target":34962
		},
		{
			"buffer":0,
			"byteLength":54432,
			"byteOffset":114048,
			"target":34963
		},
		{
			"buffer":0,
			"byteLength":1296,
			"byteOffset":168480,
			"target":34962
		},
		{
			"buffer":0,
			"byteLength":1296,
			"byteOffset":169776,
			"target":34962
		},
		{
			"buffer":0,
			"byteLength":324,
			"byteOffset":171072,
			"target":34963
		},
		{
			"buffer":0,
			"byteLength":1296,
			"byteOffset":171396,
			"target":34962
		},
		{
			"buffer":0,
			"byteLength":1296,
			"byteOffset":172692,
			"target":34962
		},
		{
			"buffer":0,
			"byteLength":324,
			"byteOffset":173988,
			"target":34963
		},
		{
			"buffer":0,
			"byteLength":1296,
			"byteOffset":174312,
			"target":34962
		},
		{
			"buffer":0,
			"byteLength":1296,
			"byteOffset":175608,
			"target":34962
		},
		{
			"buffer":0,
			"byteLength":1296,
			"byteOffset":176904,
			"target":34962
		},
		{
			"buffer":0,
			"byteLength":1296,
			"byteOffset":178200,
			"target":34962
		},
		{
			"buffer":0,
			"byteLength":324,
			"byteOffset":179496,
			"target":34963
		},
		{
			"buffer":0,
			"byteLength":1296,
			"byteOffset":179820,
			"target":34962
		},
		{
			"buffer":0,
			"byteLength":1296,
			"byteOffset":181116,
			"target":34962
		},
		{
			"buffer":0,
			"byteLength":324,
			"byteOffset":182412,
			"target":34963
		},
		{
			"buffer":0,
			"byteLength":1296,
			"byteOffset":182736,
			"target":34962
		},
		{
			"buffer":0,
			"byteLength":1296,
			"byteOffset":184032,
			"target":34962
		}
	],
	"buffers":[
		{
			"byteLength":185328,
			"uri":"data:application/octet-stream;base64,"
		}
	]
}
